<svg width="22" height="16" viewBox="0 0 22 16" fill="none" xmlns="http://www.w3.org/2000/svg">
<path d="M19.25 15.5H2.75C2.15326 15.5 1.58097 15.2629 1.15901 14.841C0.737053 14.419 0.5 13.8467 0.5 13.25V2.75C0.5 2.15326 0.737053 1.58097 1.15901 1.15901C1.58097 0.737053 2.15326 0.5 2.75 0.5H19.25C19.8467 0.5 20.419 0.737053 20.841 1.15901C21.2629 1.58097 21.5 2.15326 21.5 2.75V13.25C21.5 13.8467 21.2629 14.419 20.841 14.841C20.419 15.2629 19.8467 15.5 19.25 15.5ZM2.75 2C2.55109 2 2.36032 2.07902 2.21967 2.21967C2.07902 2.36032 2 2.55109 2 2.75V13.25C2 13.4489 2.07902 13.6397 2.21967 13.7803C2.36032 13.921 2.55109 14 2.75 14H19.25C19.4489 14 19.6397 13.921 19.7803 13.7803C19.921 13.6397 20 13.4489 20 13.25V2.75C20 2.55109 19.921 2.36032 19.7803 2.21967C19.6397 2.07902 19.4489 2 19.25 2H2.75Z" fill="white"/>
</svg>
